<svg xmlns="http://www.w3.org/2000/svg" style="display: none;">
    <symbol id="icon-sketchup" viewBox="0 0 24 24">
        <path d="M20.66 7.26c0-.07-.1-.14-.15-.21l-.09-.1a2.5 2.5 0 0 0-.86-.68l-6.4-3a2.7 2.7 0 0 0-2.26 0l-6.4 3a2.6 2.6 0 0 0-.86.68L3.52 7a1 1 0 0 0-.15.2A2.39 2.39 0 0 0 3 8.46v7.06a2.49 2.49 0 0 0 1.46 2.26l6.4 3a2.7 2.7 0 0 0 2.27 0l6.4-3A2.49 2.49 0 0 0 21 15.54V8.46a2.39 2.39 0 0 0-.34-1.2zm-8.95-2.2a.73.73 0 0 1 .58 0l5.33 2.48L12 10.15 6.38 7.54zM5.3 16a.47.47 0 0 1-.3-.43V9.1l6 2.79v6.72zm13.39 0L13 18.61v-6.72l6-2.79v6.44a.48.48 0 0 1-.31.46z" data-name="cube" fill="currentColor"></path>
    </symbol>
    <symbol id="icon-github" viewBox="0 0 24 24">
        <g fill="none"><g clip-path="url(#akarIconsGithubFill0)"><path fill="currentColor" fill-rule="evenodd" d="M12 0C5.37 0 0 5.37 0 12c0 5.31 3.435 9.795 8.205 11.385c.6.105.825-.255.825-.57c0-.285-.015-1.23-.015-2.235c-3.015.555-3.795-.735-4.035-1.41c-.135-.345-.72-1.41-1.23-1.695c-.42-.225-1.02-.78-.015-.795c.945-.015 1.62.87 1.845 1.23c1.08 1.815 2.805 1.305 3.495.99c.105-.78.42-1.305.765-1.605c-2.67-.3-5.46-1.335-5.46-5.925c0-1.305.465-2.385 1.23-3.225c-.12-.3-.54-1.53.12-3.18c0 0 1.005-.315 3.3 1.23c.96-.27 1.98-.405 3-.405s2.04.135 3 .405c2.295-1.56 3.3-1.23 3.3-1.23c.66 1.65.24 2.88.12 3.18c.765.84 1.23 1.905 1.23 3.225c0 4.605-2.805 5.625-5.475 5.925c.435.375.81 1.095.81 2.22c0 1.605-.015 2.895-.015 3.3c0 .315.225.69.825.57A12.02 12.02 0 0 0 24 12c0-6.63-5.37-12-12-12Z" clip-rule="evenodd"></path></g><defs><clipPath id="akarIconsGithubFill0"><path fill="#fff" d="M0 0h24v24H0z"></path></clipPath></defs></g>
    </symbol>
    <symbol id="icon-discord" viewBox="0 0 24 24">
        <path fill="currentColor" d="M20.317 4.492c-1.53-.69-3.17-1.2-4.885-1.49a.075.075 0 0 0-.079.036c-.21.369-.444.85-.608 1.23a18.566 18.566 0 0 0-5.487 0a12.36 12.36 0 0 0-.617-1.23A.077.077 0 0 0 8.562 3c-1.714.29-3.354.8-4.885 1.491a.07.07 0 0 0-.032.027C.533 9.093-.32 13.555.099 17.961a.08.08 0 0 0 .031.055a20.03 20.03 0 0 0 5.993 2.98a.078.078 0 0 0 .084-.026a13.83 13.83 0 0 0 1.226-1.963a.074.074 0 0 0-.041-.104a13.201 13.201 0 0 1-1.872-.878a.075.075 0 0 1-.008-.125c.126-.093.252-.19.372-.287a.075.075 0 0 1 .078-.01c3.927 1.764 8.18 1.764 12.061 0a.075.075 0 0 1 .079.009c.12.098.245.195.372.288a.075.075 0 0 1-.006.125c-.598.344-1.22.635-1.873.877a.075.075 0 0 0-.041.105c.36.687.772 1.341 1.225 1.962a.077.077 0 0 0 .084.028a19.963 19.963 0 0 0 6.002-2.981a.076.076 0 0 0 .032-.054c.5-5.094-.838-9.52-3.549-13.442a.06.06 0 0 0-.031-.028ZM8.02 15.278c-1.182 0-2.157-1.069-2.157-2.38c0-1.312.956-2.38 2.157-2.38c1.21 0 2.176 1.077 2.157 2.38c0 1.312-.956 2.38-2.157 2.38Zm7.975 0c-1.183 0-2.157-1.069-2.157-2.38c0-1.312.955-2.38 2.157-2.38c1.21 0 2.176 1.077 2.157 2.38c0 1.312-.946 2.38-2.157 2.38Z"></path>
    </symbol>
    <symbol id="icon-facebook" viewBox="0 0 24 24">
        <g fill="none"><g clip-path="url(#akarIconsFacebookFill0)"><path fill="currentColor" fill-rule="evenodd" d="M0 12.067C0 18.033 4.333 22.994 10 24v-8.667H7V12h3V9.333c0-3 1.933-4.666 4.667-4.666c.866 0 1.8.133 2.666.266V8H15.8c-1.467 0-1.8.733-1.8 1.667V12h3.2l-.533 3.333H14V24c5.667-1.006 10-5.966 10-11.933C24 5.43 18.6 0 12 0S0 5.43 0 12.067Z" clip-rule="evenodd"></path></g><defs><clipPath id="akarIconsFacebookFill0"><path fill="#fff" d="M0 0h24v24H0z"></path></clipPath></defs></g>
    </symbol>
    <symbol id="icon-linkedin" viewBox="0 0 24 24">
        <path fill="currentColor" fill-rule="evenodd" d="M1 2.838A1.838 1.838 0 0 1 2.838 1H21.16A1.837 1.837 0 0 1 23 2.838V21.16A1.838 1.838 0 0 1 21.161 23H2.838A1.838 1.838 0 0 1 1 21.161V2.838Zm8.708 6.55h2.979v1.496c.43-.86 1.53-1.634 3.183-1.634c3.169 0 3.92 1.713 3.92 4.856v5.822h-3.207v-5.106c0-1.79-.43-2.8-1.522-2.8c-1.515 0-2.145 1.089-2.145 2.8v5.106H9.708V9.388Zm-5.5 10.403h3.208V9.25H4.208v10.54ZM7.875 5.812a2.063 2.063 0 1 1-4.125 0a2.063 2.063 0 0 1 4.125 0Z" clip-rule="evenodd"></path>
    </symbol>
    <symbol id="icon-paypal" viewBox="0 0 32 32">
        <path d="M26.28 9.58A6.64 6.64 0 0 0 19.65 3H10a1 1 0 0 0-1 .84L5.58 25.29a1 1 0 0 0 .23.8 1 1 0 0 0 .76.36h4.13l-.22 1.39a1 1 0 0 0 1 1.16h4.65a1 1 0 0 0 1-.83l1-6.11h3.15a7.46 7.46 0 0 0 7.43-7.45v-.28a5.87 5.87 0 0 0-2.43-4.75ZM10.85 5h8.8a4.64 4.64 0 0 1 4.51 3.61 5.68 5.68 0 0 0-1.32-.15H14.5a1 1 0 0 0-1 .84l-.59 3.7a1 1 0 0 0 2 .32l.46-2.88h7.49a3.87 3.87 0 0 1 1.4.27 6.47 6.47 0 0 1-6.4 5.69h-4.64a1 1 0 0 0-1 .83L11 24.45H7.74Zm15.86 9.61a5.46 5.46 0 0 1-5.43 5.45h-4a1 1 0 0 0-1 .83l-1 6.11h-2.64l.22-1.39 1.2-7.19h3.78A8.46 8.46 0 0 0 26 12.1a3.82 3.82 0 0 1 .71 2.23Z" data-name="paypal payment pay" fill="currentColor"></path>
    </symbol>
    <symbol id="icon-camera" viewBox="0 0 24 24">
        <path d="M19,6.5H17.72l-.32-1a3,3,0,0,0-2.84-2H9.44A3,3,0,0,0,6.6,5.55l-.32,1H5a3,3,0,0,0-3,3v8a3,3,0,0,0,3,3H19a3,3,0,0,0,3-3v-8A3,3,0,0,0,19,6.5Zm1,11a1,1,0,0,1-1,1H5a1,1,0,0,1-1-1v-8a1,1,0,0,1,1-1H7a1,1,0,0,0,1-.68l.54-1.64a1,1,0,0,1,.95-.68h5.12a1,1,0,0,1,.95.68l.54,1.64A1,1,0,0,0,17,8.5h2a1,1,0,0,1,1,1Zm-8-9a4,4,0,1,0,4,4A4,4,0,0,0,12,8.5Zm0,6a2,2,0,1,1,2-2A2,2,0,0,1,12,14.5Z" fill="currentColor"></path>
    </symbol>
    <symbol id="icon-code" viewBox="0 0 24 24">
        <path d="M6 6a2 2 0 0 1 2-2 1 1 0 0 0 0-2 4 4 0 0 0-4 4v3a2 2 0 0 1-2 2 1 1 0 0 0 0 2 2 2 0 0 1 2 2v3a4 4 0 0 0 4 4 1 1 0 0 0 0-2 2 2 0 0 1-2-2v-3a4 4 0 0 0-1.38-3A4 4 0 0 0 6 9Zm16 5a2 2 0 0 1-2-2V6a4 4 0 0 0-4-4 1 1 0 0 0 0 2 2 2 0 0 1 2 2v3a4 4 0 0 0 1.38 3A4 4 0 0 0 18 15v3a2 2 0 0 1-2 2 1 1 0 0 0 0 2 4 4 0 0 0 4-4v-3a2 2 0 0 1 2-2 1 1 0 0 0 0-2Z" fill="currentColor"></path>
    </symbol>
    <symbol id="icon-menuOpen" viewBox="0 0 24 24">
        <path d="M12,10a2,2,0,1,0,2,2A2,2,0,0,0,12,10ZM5,10a2,2,0,1,0,2,2A2,2,0,0,0,5,10Zm14,0a2,2,0,1,0,2,2A2,2,0,0,0,19,10Z" fill="currentColor"></path>
    </symbol>
    <symbol id="icon-menuClosed" viewBox="0 0 20 20">
        <path d="M14.348 14.849a1.2 1.2 0 0 1-1.697 0L10 11.819l-2.651 3.029a1.2 1.2 0 1 1-1.697-1.697l2.758-3.15-2.759-3.152a1.2 1.2 0 1 1 1.697-1.697L10 8.183l2.651-3.031a1.2 1.2 0 1 1 1.697 1.697l-2.758 3.152 2.758 3.15a1.2 1.2 0 0 1 0 1.698z" fill="currentColor"></path>
    </symbol>
    <symbol viewBox="0 0 24 24" id="icon-left">
        <path fill="currentColor" d="m9.55 12l7.35 7.35q.375.375.363.875t-.388.875q-.375.375-.875.375t-.875-.375l-7.7-7.675q-.3-.3-.45-.675t-.15-.75q0-.375.15-.75t.45-.675l7.7-7.7q.375-.375.888-.363t.887.388q.375.375.375.875t-.375.875L9.55 12Z"></path>
    </symbol>
    <symbol viewBox="0 0 24 24" id="icon-right">
        <path fill="currentColor" d="m14.475 12l-7.35-7.35q-.375-.375-.363-.888t.388-.887q.375-.375.888-.375t.887.375l7.675 7.7q.3.3.45.675t.15.75q0 .375-.15.75t-.45.675l-7.7 7.7q-.375.375-.875.363T7.15 21.1q-.375-.375-.375-.888t.375-.887L14.475 12Z"></path>
    </symbol>
    <symbol viewBox="0 0 24 24" id="icon-view">
        <path fill="currentColor" d="M5 21q-.825 0-1.413-.588T3 19V5q0-.825.588-1.413T5 3h5v2H5v14h14v-5.35l2 2V19q0 .825-.588 1.413T19 21H5Zm1-4l3-4l2.25 3l3-4L18 17H6Zm15.55-3.6l-3.1-3.1q-.525.35-1.125.525T16.05 11q-1.85 0-3.15-1.312T11.6 6.5q0-1.875 1.313-3.188T16.1 2q1.875 0 3.188 1.313T20.6 6.5q0 .675-.2 1.3t-.5 1.15L22.95 12l-1.4 1.4ZM16.1 9q1.05 0 1.775-.725T18.6 6.5q0-1.05-.725-1.775T16.1 4q-1.05 0-1.775.725T13.6 6.5q0 1.05.725 1.775T16.1 9Z"></path>
    </symbol>
    <symbol viewBox="0 0 24 24" id="icon-eye">
        <path fill="currentColor" d="M12 4.5C7 4.5 2.73 7.61 1 12c1.73 4.39 6 7.5 11 7.5s9.27-3.11 11-7.5c-1.73-4.39-6-7.5-11-7.5zM12 17c-2.76 0-5-2.24-5-5s2.24-5 5-5s5 2.24 5 5s-2.24 5-5 5zm0-8c-1.66 0-3 1.34-3 3s1.34 3 3 3s3-1.34 3-3s-1.34-3-3-3z"></path>
    </symbol>
    <symbol viewBox="0 0 24 24" id="icon-download">
        <path fill="currentColor" d="M8 17h8q.425 0 .713-.288T17 16q0-.425-.288-.713T16 15H8q-.425 0-.713.288T7 16q0 .425.288.713T8 17Zm3-6.85l-.9-.875Q9.825 9 9.412 9t-.712.3q-.275.275-.275.7t.275.7l2.6 2.6q.3.3.7.3t.7-.3l2.6-2.6q.275-.275.287-.688T15.3 9.3q-.275-.275-.688-.288t-.712.263l-.9.875V7q0-.425-.288-.713T12 6q-.425 0-.713.288T11 7v3.15ZM12 22q-2.075 0-3.9-.788t-3.175-2.137q-1.35-1.35-2.137-3.175T2 12q0-2.075.788-3.9t2.137-3.175q1.35-1.35 3.175-2.137T12 2q2.075 0 3.9.788t3.175 2.137q1.35 1.35 2.138 3.175T22 12q0 2.075-.788 3.9t-2.137 3.175q-1.35 1.35-3.175 2.138T12 22Zm0-2q3.35 0 5.675-2.325T20 12q0-3.35-2.325-5.675T12 4Q8.65 4 6.325 6.325T4 12q0 3.35 2.325 5.675T12 20Zm0-8Z"></path>
    </symbol>
    <symbol viewBox="0 0 24 24" id="icon-html">
        <g fill="none" stroke="currentColor" stroke-linecap="round" stroke-linejoin="round" stroke-width="2"><path d="m20 4l-2 14.5l-6 2l-6-2L4 4z"></path><path d="M15.5 8h-7l.5 4h6l-.5 3.5l-2.5.75l-2.5-.75l-.1-.5"></path></g>
    </symbol>
    <symbol viewBox="0 0 24 24" id="icon-css">
        <g fill="none" stroke="currentColor" stroke-linecap="round" stroke-linejoin="round" stroke-width="2"><path d="m20 4l-2 14.5l-6 2l-6-2L4 4z"></path><path d="M8.5 8h7L11 12h4l-.5 3.5l-2.5.75l-2.5-.75l-.1-.5"></path></g>
    </symbol>
    <symbol viewBox="0 0 24 24" id="icon-js">
        <g fill="none" stroke="currentColor" stroke-linecap="round" stroke-linejoin="round" stroke-width="2"><path d="m20 4l-2 14.5l-6 2l-6-2L4 4z"></path><path d="M7.5 8h3v8l-2-1m8-7H14a.5.5 0 0 0-.5.5v3a.5.5 0 0 0 .5.5h1.423a.5.5 0 0 1 .495.57L15.5 15.5l-2 .5"></path></g>
    </symbol>
    <symbol viewBox="0 0 24 24" id="icon-php">
        <g fill="none" stroke="currentColor" stroke-linecap="round" stroke-linejoin="round" stroke-width="2"><path d="M2 12a10 9 0 1 0 20 0a10 9 0 1 0-20 0"></path><path d="m5.5 15l.395-1.974L6.5 10h1.32a1 1 0 0 1 .986 1.164l-.167 1a1 1 0 0 1-.986.836H6m9.5 2l.395-1.974L16.5 10h1.32a1 1 0 0 1 .986 1.164l-.167 1a1 1 0 0 1-.986.836H16m-4-5.5L11 13m.6-3H14l-.5 3"></path></g>
    </symbol>
    <symbol viewBox="0 0 24 24" id="icon-symfony">
        <g fill="none" stroke="currentColor" stroke-linecap="round" stroke-linejoin="round" stroke-width="2"><path d="M6 13c.458.667 1.125 1 2 1c1.313 0 2-.875 2-1.5c0-1.5-2-1-2-2C8 9.875 8.516 9 9.5 9c2.5 0 1.563 2 5.5 2c.667 0 1-.333 1-1"></path><path d="M9 17c-.095.667.238 1 1 1c1.714 0 2.714-2 3-6c.286-4 1.571-6 3-6c.571 0 .905.333 1 1"></path><path d="M22 12c0 5.523-4.477 10-10 10S2 17.523 2 12S6.477 2 12 2a10 10 0 0 1 10 10z"></path></g>
    </symbol>
    <symbol viewBox="0 0 24 24" id="icon-react">
        <g fill="none" stroke="currentColor" stroke-linecap="round" stroke-linejoin="round" stroke-width="2"><path d="M6.306 8.711C3.704 9.434 2 10.637 2 12c0 2.21 4.477 4 10 4c.773 0 1.526-.035 2.248-.102m3.444-.609C20.295 14.567 22 13.363 22 12c0-2.21-4.477-4-10-4c-.773 0-1.526.035-2.25.102"></path><path d="M6.305 15.287C5.629 17.902 5.82 19.98 7 20.66c1.913 1.105 5.703-1.877 8.464-6.66c.387-.67.733-1.339 1.036-2m1.194-3.284C18.371 6.1 18.181 4.02 17 3.34C15.087 2.235 11.297 5.217 8.536 10c-.387.67-.733 1.34-1.037 2"></path><path d="M12 5.424C10.075 3.532 8.18 2.658 7 3.34C5.087 4.444 5.774 9.217 8.536 14c.386.67.793 1.304 1.212 1.896M12 18.574c1.926 1.893 3.821 2.768 5 2.086c1.913-1.104 1.226-5.877-1.536-10.66c-.375-.65-.78-1.283-1.212-1.897M11.5 12.866a1 1 0 1 0 1-1.732a1 1 0 0 0-1 1.732z"></path></g>
    </symbol>
    <symbol viewBox="0 0 24 24" id="icon-tailwind">
        <path fill="none" stroke="currentColor" stroke-linecap="round" stroke-linejoin="round" stroke-width="2" d="M11.667 6C9.177 6 7.623 7.222 7 9.667c.933-1.223 2.023-1.68 3.267-1.375c.71.174 1.217.68 1.778 1.24c.916.912 2 1.968 4.288 1.968c2.49 0 4.044-1.222 4.667-3.667c-.933 1.223-2.023 1.68-3.267 1.375c-.71-.174-1.217-.68-1.778-1.24C15.039 7.056 13.98 6 11.667 6zm-4 6.5c-2.49 0-4.044 1.222-4.667 3.667c.933-1.223 2.023-1.68 3.267-1.375c.71.174 1.217.68 1.778 1.24c.916.912 1.975 1.968 4.288 1.968c2.49 0 4.044-1.222 4.667-3.667c-.933 1.223-2.023 1.68-3.267 1.375c-.71-.174-1.217-.68-1.778-1.24c-.916-.912-1.975-1.968-4.288-1.968z"></path>
    </symbol>
    <symbol viewBox="0 0 24 24" id="icon-bootstrap">
        <path fill="currentColor" d="M11.77 11.24H9.956V8.202h2.152c1.17 0 1.834.522 1.834 1.466c0 1.008-.773 1.572-2.174 1.572zm.324 1.206H9.957v3.348h2.231c1.459 0 2.232-.585 2.232-1.685s-.795-1.663-2.326-1.663zM24 11.39v1.218c-1.128.108-1.817.944-2.226 2.268c-.407 1.319-.463 2.937-.42 4.186c.045 1.3-.968 2.5-2.337 2.5H4.985c-1.37 0-2.383-1.2-2.337-2.5c.043-1.249-.013-2.867-.42-4.186c-.41-1.324-1.1-2.16-2.228-2.268V11.39c1.128-.108 1.819-.944 2.227-2.268c.408-1.319.464-2.937.42-4.186c-.045-1.3.968-2.5 2.338-2.5h14.032c1.37 0 2.382 1.2 2.337 2.5c-.043 1.249.013 2.867.42 4.186c.409 1.324 1.098 2.16 2.226 2.268zm-7.927 2.817c0-1.354-.953-2.333-2.368-2.488v-.057c1.04-.169 1.856-1.135 1.856-2.213c0-1.537-1.213-2.538-3.062-2.538h-4.16v10.172h4.181c2.218 0 3.553-1.086 3.553-2.876z"></path>
    </symbol>
    <symbol viewBox="0 0 24 24" id="icon-wordpress">
        <g fill="none" stroke="currentColor" stroke-linecap="round" stroke-linejoin="round" stroke-width="2"><path d="M9.5 9h3M4 9h2.5M11 9l3 11l4-9M5.5 9L9 20l3-7m6-2c.177-.528 1-1.364 1-2.5c0-1.78-.776-2.5-1.875-2.5C16.227 6 16 6.812 16 7.429c0 1.83 2 2.058 2 3.571z"></path><path d="M3 12a9 9 0 1 0 18 0a9 9 0 1 0-18 0"></path></g>
    </symbol>
    <symbol viewBox="0 0 24 24" id="icon-up">
        <path fill="currentColor" d="M11 11.8V15q0 .425.288.713T12 16q.425 0 .713-.288T13 15v-3.2l.9.9q.275.275.7.275t.7-.275q.275-.275.275-.7t-.275-.7l-2.6-2.6q-.3-.3-.7-.3t-.7.3l-2.6 2.6q-.275.275-.275.7t.275.7q.275.275.7.275t.7-.275l.9-.9ZM12 22q-2.075 0-3.9-.788t-3.175-2.137q-1.35-1.35-2.137-3.175T2 12q0-2.075.788-3.9t2.137-3.175q1.35-1.35 3.175-2.137T12 2q2.075 0 3.9.788t3.175 2.137q1.35 1.35 2.138 3.175T22 12q0 2.075-.788 3.9t-2.137 3.175q-1.35 1.35-3.175 2.138T12 22Zm0-2q3.35 0 5.675-2.325T20 12q0-3.35-2.325-5.675T12 4Q8.65 4 6.325 6.325T4 12q0 3.35 2.325 5.675T12 20Zm0-8Z"></path>
    </symbol>
    <symbol viewBox="0 0 24 24" id="icon-android">
        <path fill="currentColor" d="M1 18q.225-2.675 1.638-4.925T6.4 9.5L4.55 6.3q-.15-.225-.075-.475T4.8 5.45q.2-.125.45-.05t.4.3L7.5 8.9Q9.65 8 12 8t4.5.9l1.85-3.2q.15-.225.4-.3t.45.05q.25.125.325.375t-.075.475L17.6 9.5q2.35 1.325 3.762 3.575T23 18H1Zm6-2.75q.525 0 .888-.363T8.25 14q0-.525-.363-.888T7 12.75q-.525 0-.888.363T5.75 14q0 .525.363.888T7 15.25Zm10 0q.525 0 .888-.363T18.25 14q0-.525-.363-.888T17 12.75q-.525 0-.888.363T15.75 14q0 .525.363.888t.887.362Z"></path>
    </symbol>
    <symbol viewBox="0 0 24 24" id="icon-phone">
        <path fill="currentColor" d="M10 20h4v-1h-4v1Zm-3 3q-.825 0-1.413-.588T5 21V3q0-.825.588-1.413T7 1h10q.825 0 1.413.588T19 3v18q0 .825-.588 1.413T17 23H7Zm0-5v3h10v-3H7Zm0-2h10V6H7v10ZM7 4h10V3H7v1Zm0 14v3v-3ZM7 4V3v1Z"></path>
    </symbol>
    <symbol viewBox="0 0 24 24" id="icon-pc">
        <path fill="currentColor" d="M2 18V5q0-.825.588-1.413T4 3h16q.825 0 1.413.588T22 5v13h1q.425 0 .713.288T24 19q0 .425-.288.713T23 20H1q-.425 0-.713-.288T0 19q0-.425.288-.713T1 18h1Zm8.5 0h3q.2 0 .35-.15t.15-.35q0-.2-.15-.35T13.5 17h-3q-.2 0-.35.15t-.15.35q0 .2.15.35t.35.15ZM4 15h16V5H4v10Zm0 0V5v10Z"></path>
    </symbol>
    <symbol viewBox="0 0 24 24" id="icon-game">
        <path fill="currentColor" d="M6 9h2v2h2v2H8v2H6v-2H4v-2h2V9m12.5 0a1.5 1.5 0 0 1 1.5 1.5a1.5 1.5 0 0 1-1.5 1.5a1.5 1.5 0 0 1-1.5-1.5A1.5 1.5 0 0 1 18.5 9m-3 3a1.5 1.5 0 0 1 1.5 1.5a1.5 1.5 0 0 1-1.5 1.5a1.5 1.5 0 0 1-1.5-1.5a1.5 1.5 0 0 1 1.5-1.5M17 5a7 7 0 0 1 7 7a7 7 0 0 1-7 7c-1.96 0-3.73-.8-5-2.1A6.96 6.96 0 0 1 7 19a7 7 0 0 1-7-7a7 7 0 0 1 7-7h10M7 7a5 5 0 0 0-5 5a5 5 0 0 0 5 5c1.64 0 3.09-.79 4-2h2c.91 1.21 2.36 2 4 2a5 5 0 0 0 5-5a5 5 0 0 0-5-5H7Z"></path>
    </symbol>
    <symbol viewBox="0 0 512 512" id="icon-playstore">
        <path fill="currentColor" d="M48 59.49v393a4.33 4.33 0 0 0 7.37 3.07L260 256L55.37 56.42A4.33 4.33 0 0 0 48 59.49ZM345.8 174L89.22 32.64l-.16-.09c-4.42-2.4-8.62 3.58-5 7.06l201.13 192.32ZM84.08 472.39c-3.64 3.48.56 9.46 5 7.06l.16-.09L345.8 338l-60.61-57.95ZM449.38 231l-71.65-39.46L310.36 256l67.37 64.43L449.38 281c19.49-10.77 19.49-39.23 0-50Z"></path>
    </symbol>
    <symbol viewBox="0 0 128 128" id="icon-woocommerce">
        <path fill="currentColor" d="M12.1 102.4H9.8c-2.9 0-5.2-2.3-5.2-5.2c0-3 2.4-5.4 5.4-5.4h2.1v-4.2H9.3c-5.1 0-9.3 4.2-9.3 9.3c0 5.7 4.6 10.3 10.3 10.3h1.8v-4.8zm103.8 0h-2.3c-2.9 0-5.2-2.3-5.2-5.2c0-3 2.4-5.4 5.4-5.4h2.1v-4.2H113c-5.1 0-9.3 4.2-9.3 9.3c0 5.7 4.6 10.3 10.3 10.3h1.8v-4.8zM22.1 87.6c-4.5 0-8.1 4.4-8.1 9.8s3.6 9.8 8.1 9.8s8.1-4.4 8.1-9.8s-3.6-9.8-8.1-9.8zm0 15.9c-2 0-3.5-2.7-3.5-6s1.6-6 3.5-6c2 0 3.5 2.7 3.5 6s-1.6 6-3.5 6zm8.1 3.7l3.1-19.6h6.5l1.9 9.8l2.5-9.8h6l2.9 19.6h-5l-1.6-13.3l-2.7 13.3h-3.4l-3.7-13.1l-1.7 13.1zm24 0l3.1-19.6h6.5l1.8 9.8l2.5-9.8h6.1l2.9 19.6h-5l-1.7-13.3l-2.7 13.3h-3.3l-3.8-13.1l-1.6 13.1zm23.7 0V87.6h10.2v3.8H83v4.2h4.5v3.6h-5.1v3.8h5.7v4.2zm39.9 0V87.6H128v3.8h-5.1v4.2h4.5v3.6h-5.1v3.8h5.7v4.2z"></path><path fill="currentColor" d="M100 98.1c1.6 0 3-1.3 3-3v-1.8c0-3.2-2.6-5.7-5.7-5.7h-7.4v19.6h4.6V98l5 9.2h5.1l-4.6-9.1zm-3.9-1.7h-1.7v-4.8h1.9c1.3 0 2.3 1 2.3 2.3c-.1 1.4-1.2 2.5-2.5 2.5zM74.4 37.7c-1.9-.2-5.4.8-7 8.6c0 4.8 1.1 7.6 2.9 8.6c3.3 1 7.2-3.4 7.2-8.2c.1-3.1.3-7.2-3.1-9zm25.6 0c-1.9-.2-5.4.8-7 8.6c0 4.8 1.1 7.6 2.9 8.6c3.3 1 7.2-3.4 7.2-8.2c.2-3.1.3-7.2-3.1-9z"></path><path fill="currentColor" d="M104 20.8H24.3c-6.4 0-11.7 5.2-11.7 11.7v27.4c0 6.4 5.2 11.7 11.7 11.7H104c6.4 0 11.7-5.2 11.7-11.7V32.4c0-6.4-5.3-11.6-11.7-11.6zM48.1 64.2s-5.5-7.3-6.9-12.8s-1.6-3-1.6-3s-4.4 9.9-9 16.2c-4.6 6.3-6.9-3.1-6.9-3.1c-1.6-1.9-6.2-29.9-6.2-29.9c2.6-7.1 7-1.3 7-1.3L29 53.1s6.9-14 9.1-17.5c2.3-3.6 6.2-2.6 6.5 1.1c.3 3.7 4.1 14 4.1 14c.3-10.7 4.7-20.9 5.4-22.6s7.8-3.6 6.5 3.2c-3.1 7.6-6.2 23.7-5.4 32.5c-2 6.7-7.1.4-7.1.4zm28.8-3.6c-2.1 1-9.9 6.3-15.4-5.7c-3.5-12.1 4.2-21 4.2-21s10.1-8.6 17 2.8c5.5 12.5-3.7 22.9-5.8 23.9zm25.7 0c-2.1 1-9.9 6.3-15.4-5.7c-3.5-12.1 4.2-21 4.2-21s10.1-8.6 17 2.8c5.5 12.5-3.7 22.9-5.8 23.9z"></path><path fill="currentColor" d="M62 71.5L79.9 82l-3.7-10.5l-10.3-2.9z"></path>
    </symbol>
    <!-- Ajoutez plus d'icônes au besoin -->
</svg>