<svg id="Calque_1" data-name="Calque 1" xmlns="http://www.w3.org/2000/svg" viewBox="0 0 170 156.08"><defs><style>.cls-1{fill:#eefbfb;}.cls-2{fill:#4da8da;}</style></defs><path class="cls-1" d="M15.4,5.7c-3.9,8.9-3.9,10,0,22.1C17.4,34,19,39.4,19,40S14.7,51.9,9.5,65.1L0,89.2l13.6,26.9c9.8,19.5,14.2,27.2,15.8,27.8,1.1.4,9.3,1.4,18.1,2.1,15.9,1.2,16,1.3,19.9,4.6,8.5,7.3,26.7,7.3,35.2,0,3.9-3.3,4-3.4,19.9-4.6,8.8-.7,17-1.7,18.1-2.1,1.6-.6,6-8.3,15.8-27.8L170,89.2l-9.5-24.1C155.3,51.9,151,40.6,151,40s1.6-6,3.6-12.2c3.9-12.1,3.9-13.2,0-22.1L152,0H131.1l-5.3,6.5L120.5,13h-71L44.2,6.5,38.9,0H18ZM42.3,7.9,47,13.8,34,26,21.1,38.1,17.5,26.8,14,15.5l2.7-6.7L19.5,2H37.7Zm111,.9,2.7,6.7-3.5,11.3-3.6,11.3L136,26,123,13.8l4.7-5.9L132.3,2h18.2ZM115,17c-1.4,1.1-7.5,5.4-13.7,9.7-13.1,9.1-12.2,7.1-12.6,30.2l-.2,14.4,8.8,5.1,8.7,5.1-.2,21.3-.3,21.4-10.3,4.3L85,132.9l-10.3-4.4-10.2-4.3-.3-21.4L64,81.5l8.7-5.1,8.8-5.1-.2-14.4c-.4-23.1.5-21.1-12.6-30.2C49.7,13.5,47.5,15,85,15,117.4,15,117.5,15.1,115,17ZM63.7,27.1l13.2,9.4.6,6c.3,3.3.7,10.7.8,16.5l.2,10.4-9.2,5.4L60,80.2v45.5L72.5,131,85,136.3,97.5,131l12.5-5.3V80.2l-9.2-5.4-9.3-5.4L91.7,59c.1-5.8.5-13.2.8-16.5l.6-6L106.5,27c7.3-5.2,14-9.5,14.8-9.5s6.9,5.3,13.7,11.8l12.3,11.8-3.2,27.2c-1.8,15-3.6,27.6-3.9,28.2-3.6,5.8-36,48.9-38.9,51.6-7.8,7.4-24.8,7.4-32.6,0-2.9-2.7-35.3-45.8-38.9-51.6-.3-.6-2.1-13.2-3.9-28.2L22.7,41.1l12.4-12c7-6.8,13.1-11.9,13.9-11.7S56.4,21.9,63.7,27.1ZM23,70.2c1.5,12.8,2.7,23.4,2.6,23.5C25.1,94.4,4,87.4,4,86.5c0-1.4,15.4-40.5,15.8-40C20,46.7,21.4,57.3,23,70.2ZM166,86.4c0,1-21,8-21.6,7.3-.1-.1,5.1-44.6,5.6-47.7C150.2,45.1,166,85.2,166,86.4ZM14.7,93.9c5.6,1.6,10.7,3.2,11.2,3.5s8.3,10.7,17.2,22.9,16.6,22.7,17,23.2c.5.7-4.4.6-14.9-.3-8.6-.7-15.7-1.4-15.8-1.5C28.9,141.1,4,91,4.2,91S9.1,92.3,14.7,93.9Zm138.7,22.3c-6.9,13.9-12.7,25.4-12.8,25.5s-7.2.8-15.8,1.5c-10.5.9-15.4,1-14.9.3.4-.5,8.1-11,17-23.2s16.6-22.5,17.2-22.9c1-.6,19.6-6.2,21.2-6.3C165.7,91,160.3,102.4,153.4,116.2Z"/><path class="cls-1" d="M70,109.8v4.8l7.5,5.1,7.5,5.2,7.5-5.2,7.5-5.1V105H70Zm27,.7c0,1.9-1.4,3.4-6,6.5l-6,4.1L79,117c-4.6-3.1-6-4.6-6-6.5V108H97Z"/><path id="Path_4" data-name="Path 4" class="cls-2" d="M54.1,61a13.19,13.19,0,0,1,4.8,1.9c1.7,1.1,3.2,2.2,3.2,2.5s-1.6,1.4-7,4.5l-3.5-2.7a25.87,25.87,0,0,1-3.8-3.4c0-.3,1-1.1,2.3-1.7A13.52,13.52,0,0,1,54.1,61Zm65.8,1.1c1.3.6,2.3,1.4,2.3,1.7a25.87,25.87,0,0,1-3.8,3.4l-3.5,2.7c-5.4-3.1-7-4.2-7-4.5s1.5-1.4,3.2-2.5a13.19,13.19,0,0,1,4.8-1.9A13.52,13.52,0,0,1,119.9,62.07Z"/></svg>