<svg id="Calque_1" data-name="Calque 1" xmlns="http://www.w3.org/2000/svg" viewBox="0 0 304.15 192.47"><defs><style>.cls-1,.cls-2{fill:none;stroke:#1d1d1b;stroke-miterlimit:10;}.cls-1{stroke-width:2.8px;}.cls-2{stroke-width:3.73px;}.cls-3{fill:#0093d3;}.cls-4{fill:#1d1d1b;}</style></defs><polyline class="cls-1" points="197.19 17.52 244.46 17.34 257.52 1.4 281.15 1.4 288.62 19.2 278.98 50 302.62 109.4 269.03 175.96 225.18 179.69 216.46 187.78 199.68 191.09"/><polyline class="cls-2" points="199.04 165.94 228.28 153.56 228.28 99.76 205.33 86.37 204.95 86.08 207.62 44.4 244.68 18.01 278.44 50.07 270.27 118.73 225.69 179.69"/><polygon class="cls-3" points="227.66 82.31 237.37 75.97 246.24 80.19 236.95 87.21 227.66 82.31"/><line class="cls-2" x1="270.27" y1="118.25" x2="302.62" y2="108.92"/><polyline class="cls-1" points="202.19 17.52 154.92 17.34 141.86 1.4 118.22 1.4 110.75 19.2 120.4 50 98.12 106.3"/><polyline class="cls-2" points="127.73 106.3 120.93 50.07 154.7 18.01 191.75 44.4 194.42 86.08 194.05 86.37 171.09 99.76 171.03 106.3"/><polyline class="cls-2" points="202.19 130.86 182.6 130.86 182.6 139.88 199.91 151.25 216.78 139.88 216.78 130.86 197.19 130.86"/><polygon class="cls-3" points="171.71 82.31 162 75.97 153.13 80.19 162.42 87.21 171.71 82.31"/><path class="cls-4" d="M26.2,109.62c2.7,2.26,4.05,5.73,4.05,10.44s-1.38,8.14-4.13,10.32-7,3.27-12.69,3.27H6.55v28.07H0V106.23H13.32Q22.16,106.23,26.2,109.62Zm-4.63,16q2-2.07,2-6.11c0-2.67-.83-4.58-2.5-5.68s-4.28-1.67-7.83-1.67H6.55v15.54h7.61Q19.59,127.71,21.57,125.63Z"/><path class="cls-4" d="M72.93,131.49v-16h6.22V145H72.93v-5.38A11.6,11.6,0,0,1,55,142.42c-2.05-2-3.08-5-3.08-8.83V115.5h6.22v16.21c0,5.43,2.25,8.16,6.77,8.16a8.11,8.11,0,0,0,5.6-2.14A7.91,7.91,0,0,0,72.93,131.49Z"/><path class="cls-4" d="M94.35,129v16H88.14V115.5h6.21v5.39a9.9,9.9,0,0,1,4-4.28,11.48,11.48,0,0,1,5.8-1.55c4.67,0,7.82,1.92,9.49,5.77q4.38-5.77,10.93-5.77a10.94,10.94,0,0,1,8.08,3c2,2,3.08,5,3.08,8.82v35.7h-6.21V128.82q0-8.16-6.77-8.16a8.25,8.25,0,0,0-5.53,2,7.62,7.62,0,0,0-2.46,5.91V145h-6.22V128.82q0-4.21-1.5-6.19a5.57,5.57,0,0,0-4.72-2,8.13,8.13,0,0,0-5.61,2.14A8,8,0,0,0,94.35,129Z"/><path class="cls-4" d="M171.9,133H148.75a6.73,6.73,0,0,0,2.94,5.18,10.29,10.29,0,0,0,6.22,2q5.55,0,8.43-3.49l3.56,3.88a16.5,16.5,0,0,1-12.43,4.94,14.8,14.8,0,0,1-10.58-4.14q-4.35-4.12-4.36-11.09T147,119.16a15,15,0,0,1,10.46-4.1,15.13,15.13,0,0,1,10.25,3.63c2.81,2.43,4.22,5.76,4.22,10Zm-23.15-4.89h16.93a7.12,7.12,0,0,0-2.34-5.72,8.55,8.55,0,0,0-5.74-2,9.87,9.87,0,0,0-6.13,2.07A6.74,6.74,0,0,0,148.75,128.1Z"/><path class="cls-4" d="M17.26,187.31q-4.17-4.22-4.16-11.1t4.27-11a14.22,14.22,0,0,1,10.19-4.11,11.22,11.22,0,0,1,9.52,5V103.85H43.3v87.24H37.08v-4.44q-3.45,4.89-10,4.88A13.25,13.25,0,0,1,17.26,187.31Zm2-10.85A9.29,9.29,0,0,0,22,183.38,8.86,8.86,0,0,0,28.41,186a8.25,8.25,0,0,0,6.22-2.69,9.62,9.62,0,0,0,2.56-6.92,10.09,10.09,0,0,0-2.56-7,8.11,8.11,0,0,0-6.27-2.84A8.46,8.46,0,0,0,22,169.39,9.88,9.88,0,0,0,19.31,176.46Z"/><path class="cls-4" d="M51.84,158.56a2.88,2.88,0,0,1-1.51-2.63,3.59,3.59,0,0,1,1-2.72,3.41,3.41,0,0,1,2.5-1,3.61,3.61,0,0,1,2.52,1,3.21,3.21,0,0,1,1,2.47,5.16,5.16,0,0,1-1,3l-3.27,4.72H49.72Z"/><path class="cls-4" d="M129.54,177.55v-16h6.21v29.53h-6.21V185.7A11.06,11.06,0,0,1,125.4,190a11.79,11.79,0,0,1-13.76-1.5q-3.08-3.06-3.08-8.83V161.56h6.22v16.21q0,8.16,6.77,8.16a8.11,8.11,0,0,0,5.6-2.14A8,8,0,0,0,129.54,177.55Z"/><path class="cls-4" d="M160.23,167.39c-3.07,0-5.39,1-6.93,3a12.76,12.76,0,0,0-2.34,8.05v12.66h-6.21V161.56H151v5.94A12.84,12.84,0,0,1,155,163a9.81,9.81,0,0,1,5.47-1.84l.05,6.28Z"/><path class="cls-4" d="M187.82,182.26a8.3,8.3,0,0,1-3,6.74,11.86,11.86,0,0,1-7.83,2.53,20.6,20.6,0,0,1-6.69-1.17,19.8,19.8,0,0,1-6.13-3.27l3-4.83q5.15,3.88,10,3.89a5.29,5.29,0,0,0,3.34-1,3,3,0,0,0,1.22-2.47q0-2.22-5.89-4c-.3-.11-.52-.18-.66-.22q-9.23-2.49-9.22-8.33a7.89,7.89,0,0,1,3.19-6.57,13.16,13.16,0,0,1,8.3-2.48,17.22,17.22,0,0,1,9.66,3l-2.33,4.6a13.91,13.91,0,0,0-7.82-2.38,7.18,7.18,0,0,0-3.61.8,2.62,2.62,0,0,0-1.4,2.41,2.2,2.2,0,0,0,1.45,2.11,13.8,13.8,0,0,0,2.81.94c1.19.3,2.26.6,3.19.89s1.82.63,2.69,1a17.2,17.2,0,0,1,2.8,1.56A6.93,6.93,0,0,1,187.82,182.26Z"/><path class="cls-3" d="M85.93,156.3l10.3,9v10.79l-10.5,10.52H75.27l-9.84-10.57V165.43l9.1-9.13h11.4m1.9-5.06H72.44l-12.07,12.1v14.71l12.7,13.64H87.83l13.46-13.48V163L87.83,151.24Z"/></svg>